<mxfile host="app.diagrams.net" agent="Mozilla/5.0 (Macintosh; Intel Mac OS X 10_15_7) AppleWebKit/537.36 (KHTML, like Gecko) Chrome/131.0.0.0 Safari/537.36" version="24.7.16">
  <diagram name="Page-1" id="VpptnMwDxTGjz2HUDjfg">
    <mxGraphModel dx="3615" dy="1572" grid="1" gridSize="10" guides="1" tooltips="1" connect="1" arrows="1" fold="1" page="1" pageScale="1" pageWidth="850" pageHeight="1100" math="0" shadow="0">
      <root>
        <mxCell id="0" />
        <mxCell id="1" parent="0" />
        <mxCell id="oAxIsrdEUCZF9UECZQZN-1" value="开始解析" style="whiteSpace=wrap;strokeWidth=2;" vertex="1" parent="1">
          <mxGeometry x="92" y="20" width="124" height="49" as="geometry" />
        </mxCell>
        <mxCell id="oAxIsrdEUCZF9UECZQZN-2" value="初始化空 tokens 数组" style="whiteSpace=wrap;strokeWidth=2;" vertex="1" parent="1">
          <mxGeometry x="47" y="119" width="213" height="49" as="geometry" />
        </mxCell>
        <mxCell id="oAxIsrdEUCZF9UECZQZN-60" style="edgeStyle=orthogonalEdgeStyle;rounded=0;orthogonalLoop=1;jettySize=auto;html=1;" edge="1" parent="1" source="oAxIsrdEUCZF9UECZQZN-3" target="oAxIsrdEUCZF9UECZQZN-57">
          <mxGeometry relative="1" as="geometry" />
        </mxCell>
        <mxCell id="oAxIsrdEUCZF9UECZQZN-3" value="循环遍历 CSS 文件字符" style="whiteSpace=wrap;strokeWidth=2;" vertex="1" parent="1">
          <mxGeometry x="42" y="218" width="223" height="49" as="geometry" />
        </mxCell>
        <mxCell id="oAxIsrdEUCZF9UECZQZN-39" style="edgeStyle=orthogonalEdgeStyle;rounded=0;orthogonalLoop=1;jettySize=auto;html=1;exitX=1;exitY=0.5;exitDx=0;exitDy=0;entryX=0;entryY=0.5;entryDx=0;entryDy=0;" edge="1" parent="1" source="oAxIsrdEUCZF9UECZQZN-4" target="oAxIsrdEUCZF9UECZQZN-5">
          <mxGeometry relative="1" as="geometry" />
        </mxCell>
        <mxCell id="oAxIsrdEUCZF9UECZQZN-40" value="是" style="edgeLabel;html=1;align=center;verticalAlign=middle;resizable=0;points=[];" vertex="1" connectable="0" parent="oAxIsrdEUCZF9UECZQZN-39">
          <mxGeometry x="0.2169" y="1" relative="1" as="geometry">
            <mxPoint x="1" y="1" as="offset" />
          </mxGeometry>
        </mxCell>
        <mxCell id="oAxIsrdEUCZF9UECZQZN-41" style="edgeStyle=orthogonalEdgeStyle;rounded=0;orthogonalLoop=1;jettySize=auto;html=1;exitX=0.5;exitY=1;exitDx=0;exitDy=0;" edge="1" parent="1" source="oAxIsrdEUCZF9UECZQZN-4" target="oAxIsrdEUCZF9UECZQZN-6">
          <mxGeometry relative="1" as="geometry" />
        </mxCell>
        <mxCell id="oAxIsrdEUCZF9UECZQZN-42" value="&amp;nbsp;否" style="edgeLabel;html=1;align=center;verticalAlign=middle;resizable=0;points=[];" vertex="1" connectable="0" parent="oAxIsrdEUCZF9UECZQZN-41">
          <mxGeometry x="-0.2727" y="1" relative="1" as="geometry">
            <mxPoint as="offset" />
          </mxGeometry>
        </mxCell>
        <mxCell id="oAxIsrdEUCZF9UECZQZN-4" value="当前字符是否是空格" style="rhombus;strokeWidth=2;whiteSpace=wrap;" vertex="1" parent="1">
          <mxGeometry x="58" y="750" width="193" height="193" as="geometry" />
        </mxCell>
        <mxCell id="oAxIsrdEUCZF9UECZQZN-37" style="edgeStyle=orthogonalEdgeStyle;rounded=0;orthogonalLoop=1;jettySize=auto;html=1;exitX=1;exitY=0.5;exitDx=0;exitDy=0;entryX=1;entryY=0.5;entryDx=0;entryDy=0;" edge="1" parent="1" source="oAxIsrdEUCZF9UECZQZN-5" target="oAxIsrdEUCZF9UECZQZN-3">
          <mxGeometry relative="1" as="geometry">
            <mxPoint x="290" y="744.5" as="sourcePoint" />
            <mxPoint x="355" y="242.5" as="targetPoint" />
            <Array as="points">
              <mxPoint x="530" y="847" />
              <mxPoint x="530" y="243" />
            </Array>
          </mxGeometry>
        </mxCell>
        <mxCell id="oAxIsrdEUCZF9UECZQZN-5" value="跳过" style="whiteSpace=wrap;strokeWidth=2;" vertex="1" parent="1">
          <mxGeometry x="333.5" y="822" width="92" height="49" as="geometry" />
        </mxCell>
        <mxCell id="oAxIsrdEUCZF9UECZQZN-44" value="是" style="edgeStyle=orthogonalEdgeStyle;rounded=0;orthogonalLoop=1;jettySize=auto;html=1;exitX=1;exitY=0.5;exitDx=0;exitDy=0;entryX=0;entryY=0.5;entryDx=0;entryDy=0;" edge="1" parent="1" source="oAxIsrdEUCZF9UECZQZN-6" target="oAxIsrdEUCZF9UECZQZN-7">
          <mxGeometry relative="1" as="geometry">
            <Array as="points">
              <mxPoint x="332.5" y="1152" />
              <mxPoint x="332.5" y="1153" />
            </Array>
          </mxGeometry>
        </mxCell>
        <mxCell id="oAxIsrdEUCZF9UECZQZN-45" style="edgeStyle=orthogonalEdgeStyle;rounded=0;orthogonalLoop=1;jettySize=auto;html=1;exitX=0.5;exitY=1;exitDx=0;exitDy=0;" edge="1" parent="1" source="oAxIsrdEUCZF9UECZQZN-6" target="oAxIsrdEUCZF9UECZQZN-11">
          <mxGeometry relative="1" as="geometry" />
        </mxCell>
        <mxCell id="oAxIsrdEUCZF9UECZQZN-46" value="&amp;nbsp;否" style="edgeLabel;html=1;align=center;verticalAlign=middle;resizable=0;points=[];" vertex="1" connectable="0" parent="oAxIsrdEUCZF9UECZQZN-45">
          <mxGeometry x="-0.0442" y="4" relative="1" as="geometry">
            <mxPoint as="offset" />
          </mxGeometry>
        </mxCell>
        <mxCell id="oAxIsrdEUCZF9UECZQZN-6" value="当前字符是否是&#39;.&#39;" style="rhombus;strokeWidth=2;whiteSpace=wrap;" vertex="1" parent="1">
          <mxGeometry x="23" y="1020" width="263" height="263" as="geometry" />
        </mxCell>
        <mxCell id="oAxIsrdEUCZF9UECZQZN-7" value="创建 className Token" style="whiteSpace=wrap;strokeWidth=2;" vertex="1" parent="1">
          <mxGeometry x="378" y="1128" width="217" height="49" as="geometry" />
        </mxCell>
        <mxCell id="oAxIsrdEUCZF9UECZQZN-8" value="读取字符直到遇到开始大括号或空格" style="whiteSpace=wrap;strokeWidth=2;" vertex="1" parent="1">
          <mxGeometry x="360.5" y="1275" width="252" height="67" as="geometry" />
        </mxCell>
        <mxCell id="oAxIsrdEUCZF9UECZQZN-43" style="edgeStyle=orthogonalEdgeStyle;rounded=0;orthogonalLoop=1;jettySize=auto;html=1;exitX=0.5;exitY=1;exitDx=0;exitDy=0;" edge="1" parent="1" source="oAxIsrdEUCZF9UECZQZN-9" target="oAxIsrdEUCZF9UECZQZN-10">
          <mxGeometry relative="1" as="geometry" />
        </mxCell>
        <mxCell id="oAxIsrdEUCZF9UECZQZN-9" value="将读取的内容作为 className 的值" style="whiteSpace=wrap;strokeWidth=2;" vertex="1" parent="1">
          <mxGeometry x="392.5" y="1392" width="188" height="67" as="geometry" />
        </mxCell>
        <mxCell id="oAxIsrdEUCZF9UECZQZN-10" value="添加 Token 到 tokens 数组" style="whiteSpace=wrap;strokeWidth=2;" vertex="1" parent="1">
          <mxGeometry x="362.5" y="1517" width="248" height="49" as="geometry" />
        </mxCell>
        <mxCell id="oAxIsrdEUCZF9UECZQZN-54" style="edgeStyle=orthogonalEdgeStyle;rounded=0;orthogonalLoop=1;jettySize=auto;html=1;exitX=1;exitY=0.5;exitDx=0;exitDy=0;entryX=1;entryY=0.5;entryDx=0;entryDy=0;" edge="1" parent="1" source="oAxIsrdEUCZF9UECZQZN-11" target="oAxIsrdEUCZF9UECZQZN-3">
          <mxGeometry relative="1" as="geometry">
            <Array as="points">
              <mxPoint x="690" y="1732" />
              <mxPoint x="690" y="243" />
            </Array>
          </mxGeometry>
        </mxCell>
        <mxCell id="oAxIsrdEUCZF9UECZQZN-55" value="否" style="edgeLabel;html=1;align=center;verticalAlign=middle;resizable=0;points=[];" vertex="1" connectable="0" parent="oAxIsrdEUCZF9UECZQZN-54">
          <mxGeometry x="-0.8793" y="-1" relative="1" as="geometry">
            <mxPoint as="offset" />
          </mxGeometry>
        </mxCell>
        <mxCell id="oAxIsrdEUCZF9UECZQZN-85" style="edgeStyle=orthogonalEdgeStyle;rounded=0;orthogonalLoop=1;jettySize=auto;html=1;exitX=0.5;exitY=1;exitDx=0;exitDy=0;" edge="1" parent="1" source="oAxIsrdEUCZF9UECZQZN-11" target="oAxIsrdEUCZF9UECZQZN-13">
          <mxGeometry relative="1" as="geometry">
            <mxPoint x="156.5" y="1930" as="targetPoint" />
          </mxGeometry>
        </mxCell>
        <mxCell id="oAxIsrdEUCZF9UECZQZN-86" value="是" style="edgeLabel;html=1;align=center;verticalAlign=middle;resizable=0;points=[];" vertex="1" connectable="0" parent="oAxIsrdEUCZF9UECZQZN-85">
          <mxGeometry x="-0.1031" y="-3" relative="1" as="geometry">
            <mxPoint as="offset" />
          </mxGeometry>
        </mxCell>
        <mxCell id="oAxIsrdEUCZF9UECZQZN-11" value="当前字符是否是左大括号" style="rhombus;strokeWidth=2;whiteSpace=wrap;" vertex="1" parent="1">
          <mxGeometry x="44" y="1620" width="225" height="225" as="geometry" />
        </mxCell>
        <mxCell id="oAxIsrdEUCZF9UECZQZN-13" value="创建 descriptionStart Token" style="whiteSpace=wrap;strokeWidth=2;" vertex="1" parent="1">
          <mxGeometry x="25.49999999999997" y="1960" width="258" height="49" as="geometry" />
        </mxCell>
        <mxCell id="oAxIsrdEUCZF9UECZQZN-14" value="读取描述内容直到遇到右大括号" style="whiteSpace=wrap;strokeWidth=2;" vertex="1" parent="1">
          <mxGeometry x="30.49999999999997" y="2090" width="252" height="67" as="geometry" />
        </mxCell>
        <mxCell id="oAxIsrdEUCZF9UECZQZN-15" value="创建 property Token，保存描述内容" style="whiteSpace=wrap;strokeWidth=2;" vertex="1" parent="1">
          <mxGeometry x="49.99999999999997" y="2220" width="213" height="67" as="geometry" />
        </mxCell>
        <mxCell id="oAxIsrdEUCZF9UECZQZN-50" style="edgeStyle=orthogonalEdgeStyle;rounded=0;orthogonalLoop=1;jettySize=auto;html=1;exitX=1;exitY=0.5;exitDx=0;exitDy=0;entryX=1;entryY=0.5;entryDx=0;entryDy=0;" edge="1" parent="1" source="oAxIsrdEUCZF9UECZQZN-16" target="oAxIsrdEUCZF9UECZQZN-3">
          <mxGeometry relative="1" as="geometry">
            <Array as="points">
              <mxPoint x="690" y="2422" />
              <mxPoint x="690" y="243" />
            </Array>
          </mxGeometry>
        </mxCell>
        <mxCell id="oAxIsrdEUCZF9UECZQZN-16" value="将 descriptionStart Token  property Token 添加到 tokens 数组" style="whiteSpace=wrap;strokeWidth=2;" vertex="1" parent="1">
          <mxGeometry x="39.99999999999997" y="2388" width="233" height="67" as="geometry" />
        </mxCell>
        <mxCell id="oAxIsrdEUCZF9UECZQZN-17" value="" style="curved=1;startArrow=none;endArrow=block;exitX=0.5;exitY=1;entryX=0.5;entryY=0;rounded=0;" edge="1" parent="1" source="oAxIsrdEUCZF9UECZQZN-1" target="oAxIsrdEUCZF9UECZQZN-2">
          <mxGeometry relative="1" as="geometry">
            <Array as="points" />
          </mxGeometry>
        </mxCell>
        <mxCell id="oAxIsrdEUCZF9UECZQZN-18" value="" style="curved=1;startArrow=none;endArrow=block;exitX=0.5;exitY=1;entryX=0.5;entryY=0;rounded=0;" edge="1" parent="1" source="oAxIsrdEUCZF9UECZQZN-2" target="oAxIsrdEUCZF9UECZQZN-3">
          <mxGeometry relative="1" as="geometry">
            <Array as="points" />
          </mxGeometry>
        </mxCell>
        <mxCell id="oAxIsrdEUCZF9UECZQZN-24" value="" style="curved=1;startArrow=none;endArrow=block;exitX=0.5;exitY=1.01;entryX=0.5;entryY=0;rounded=0;" edge="1" parent="1" source="oAxIsrdEUCZF9UECZQZN-7" target="oAxIsrdEUCZF9UECZQZN-8">
          <mxGeometry relative="1" as="geometry">
            <Array as="points" />
          </mxGeometry>
        </mxCell>
        <mxCell id="oAxIsrdEUCZF9UECZQZN-25" value="" style="curved=1;startArrow=none;endArrow=block;exitX=0.5;exitY=1;entryX=0.5;entryY=0;rounded=0;" edge="1" parent="1" source="oAxIsrdEUCZF9UECZQZN-8" target="oAxIsrdEUCZF9UECZQZN-9">
          <mxGeometry relative="1" as="geometry">
            <Array as="points" />
          </mxGeometry>
        </mxCell>
        <mxCell id="oAxIsrdEUCZF9UECZQZN-31" value="" style="curved=1;startArrow=none;endArrow=block;exitX=0.5;exitY=0.99;entryX=0.5;entryY=0.01;rounded=0;" edge="1" parent="1" source="oAxIsrdEUCZF9UECZQZN-13" target="oAxIsrdEUCZF9UECZQZN-14">
          <mxGeometry relative="1" as="geometry">
            <Array as="points" />
          </mxGeometry>
        </mxCell>
        <mxCell id="oAxIsrdEUCZF9UECZQZN-32" value="" style="curved=1;startArrow=none;endArrow=block;exitX=0.5;exitY=1;entryX=0.5;entryY=0;rounded=0;" edge="1" parent="1" source="oAxIsrdEUCZF9UECZQZN-14" target="oAxIsrdEUCZF9UECZQZN-15">
          <mxGeometry relative="1" as="geometry">
            <Array as="points" />
          </mxGeometry>
        </mxCell>
        <mxCell id="oAxIsrdEUCZF9UECZQZN-33" value="" style="curved=1;startArrow=none;endArrow=block;exitX=0.5;exitY=1;entryX=0.5;entryY=0;rounded=0;" edge="1" parent="1" source="oAxIsrdEUCZF9UECZQZN-15" target="oAxIsrdEUCZF9UECZQZN-16">
          <mxGeometry relative="1" as="geometry">
            <Array as="points" />
          </mxGeometry>
        </mxCell>
        <mxCell id="oAxIsrdEUCZF9UECZQZN-58" style="edgeStyle=orthogonalEdgeStyle;rounded=0;orthogonalLoop=1;jettySize=auto;html=1;" edge="1" parent="1" source="oAxIsrdEUCZF9UECZQZN-57" target="oAxIsrdEUCZF9UECZQZN-4">
          <mxGeometry relative="1" as="geometry" />
        </mxCell>
        <mxCell id="oAxIsrdEUCZF9UECZQZN-59" value="否" style="edgeLabel;html=1;align=center;verticalAlign=middle;resizable=0;points=[];" vertex="1" connectable="0" parent="oAxIsrdEUCZF9UECZQZN-58">
          <mxGeometry x="-0.1281" y="-1" relative="1" as="geometry">
            <mxPoint as="offset" />
          </mxGeometry>
        </mxCell>
        <mxCell id="oAxIsrdEUCZF9UECZQZN-88" style="edgeStyle=orthogonalEdgeStyle;rounded=0;orthogonalLoop=1;jettySize=auto;html=1;exitX=0;exitY=0.5;exitDx=0;exitDy=0;" edge="1" parent="1" source="oAxIsrdEUCZF9UECZQZN-57" target="oAxIsrdEUCZF9UECZQZN-77">
          <mxGeometry relative="1" as="geometry">
            <mxPoint x="-425.5333333333333" y="2501" as="targetPoint" />
          </mxGeometry>
        </mxCell>
        <mxCell id="oAxIsrdEUCZF9UECZQZN-89" value="是" style="edgeLabel;html=1;align=center;verticalAlign=middle;resizable=0;points=[];" vertex="1" connectable="0" parent="oAxIsrdEUCZF9UECZQZN-88">
          <mxGeometry x="-0.6747" y="6" relative="1" as="geometry">
            <mxPoint as="offset" />
          </mxGeometry>
        </mxCell>
        <mxCell id="oAxIsrdEUCZF9UECZQZN-57" value="是否遍历结束" style="rhombus;whiteSpace=wrap;html=1;" vertex="1" parent="1">
          <mxGeometry x="31" y="430" width="247" height="240" as="geometry" />
        </mxCell>
        <mxCell id="oAxIsrdEUCZF9UECZQZN-47" style="edgeStyle=orthogonalEdgeStyle;rounded=0;orthogonalLoop=1;jettySize=auto;html=1;exitX=1;exitY=0.5;exitDx=0;exitDy=0;entryX=1;entryY=0.5;entryDx=0;entryDy=0;" edge="1" parent="1" source="oAxIsrdEUCZF9UECZQZN-10" target="oAxIsrdEUCZF9UECZQZN-3">
          <mxGeometry relative="1" as="geometry">
            <mxPoint x="700" y="238" as="targetPoint" />
            <mxPoint x="1040" y="1201.5" as="sourcePoint" />
          </mxGeometry>
        </mxCell>
        <mxCell id="oAxIsrdEUCZF9UECZQZN-48" value="继续遍历下一个字符" style="edgeLabel;html=1;align=center;verticalAlign=middle;resizable=0;points=[];" vertex="1" connectable="0" parent="oAxIsrdEUCZF9UECZQZN-47">
          <mxGeometry x="0.8199" y="-1" relative="1" as="geometry">
            <mxPoint as="offset" />
          </mxGeometry>
        </mxCell>
        <mxCell id="oAxIsrdEUCZF9UECZQZN-77" value="从 tokens 中提取每个 className 的值，存储到 classNames 数组" style="whiteSpace=wrap;strokeWidth=2;" vertex="1" parent="1">
          <mxGeometry x="-546" y="2600" width="242" height="84" as="geometry" />
        </mxCell>
        <mxCell id="oAxIsrdEUCZF9UECZQZN-78" value="根据 classNames 生成 properties 字符串" style="whiteSpace=wrap;strokeWidth=2;" vertex="1" parent="1">
          <mxGeometry x="-532" y="2734" width="215" height="67" as="geometry" />
        </mxCell>
        <mxCell id="oAxIsrdEUCZF9UECZQZN-79" value="拼接 declaration 字符串" style="whiteSpace=wrap;strokeWidth=2;" vertex="1" parent="1">
          <mxGeometry x="-541" y="2851" width="231" height="49" as="geometry" />
        </mxCell>
        <mxCell id="oAxIsrdEUCZF9UECZQZN-91" style="edgeStyle=orthogonalEdgeStyle;rounded=0;orthogonalLoop=1;jettySize=auto;html=1;exitX=0.5;exitY=1;exitDx=0;exitDy=0;" edge="1" parent="1" source="oAxIsrdEUCZF9UECZQZN-80" target="oAxIsrdEUCZF9UECZQZN-90">
          <mxGeometry relative="1" as="geometry" />
        </mxCell>
        <mxCell id="oAxIsrdEUCZF9UECZQZN-80" value="写入 .d.ts 文件" style="whiteSpace=wrap;strokeWidth=2;" vertex="1" parent="1">
          <mxGeometry x="-509" y="2950" width="167" height="49" as="geometry" />
        </mxCell>
        <mxCell id="oAxIsrdEUCZF9UECZQZN-82" value="" style="curved=1;startArrow=none;endArrow=block;exitX=0.5;exitY=1;entryX=0.5;entryY=0;rounded=0;" edge="1" parent="1" source="oAxIsrdEUCZF9UECZQZN-77" target="oAxIsrdEUCZF9UECZQZN-78">
          <mxGeometry relative="1" as="geometry">
            <Array as="points" />
          </mxGeometry>
        </mxCell>
        <mxCell id="oAxIsrdEUCZF9UECZQZN-83" value="" style="curved=1;startArrow=none;endArrow=block;exitX=0.5;exitY=1;entryX=0.5;entryY=0;rounded=0;" edge="1" parent="1" source="oAxIsrdEUCZF9UECZQZN-78" target="oAxIsrdEUCZF9UECZQZN-79">
          <mxGeometry relative="1" as="geometry">
            <Array as="points" />
          </mxGeometry>
        </mxCell>
        <mxCell id="oAxIsrdEUCZF9UECZQZN-84" value="" style="curved=1;startArrow=none;endArrow=block;exitX=0.5;exitY=1;entryX=0.5;entryY=0;rounded=0;" edge="1" parent="1" source="oAxIsrdEUCZF9UECZQZN-79" target="oAxIsrdEUCZF9UECZQZN-80">
          <mxGeometry relative="1" as="geometry">
            <Array as="points" />
          </mxGeometry>
        </mxCell>
        <mxCell id="oAxIsrdEUCZF9UECZQZN-90" value="结束" style="rounded=1;whiteSpace=wrap;html=1;" vertex="1" parent="1">
          <mxGeometry x="-485.5" y="3070" width="120" height="60" as="geometry" />
        </mxCell>
      </root>
    </mxGraphModel>
  </diagram>
</mxfile>
